<svg height="640" viewBox="0 0 480 480" width="640" xmlns="http://www.w3.org/2000/svg"><g fill="#fdd020"><path d="M376 240c0 75.11-60.89 136-136 136s-136-60.89-136-136 60.89-136 136-136 136 60.89 136 136zm0 0M240 480a8 8 0 01-8-8v-64a8 8 0 0116 0v64a8 8 0 01-8 8zm0 0M240 80a8 8 0 01-8-8V8a8 8 0 0116 0v64a8 8 0 01-8 8zm0 0M120 120L72 72M120 128a8.001 8.001 0 01-5.656-2.344l-48-48a8 8 0 0111.312-11.312l48 48A8 8 0 01120 128zm0 0M408 408l-48-48M408 416a8.001 8.001 0 01-5.656-2.344l-48-48a8 8 0 0111.312-11.312l48 48A8 8 0 01408 416zm0 0M360 120l48-48M360 128c-3.234 0-6.152-1.95-7.39-4.938s-.551-6.43 1.734-8.718l48-48a8 8 0 0111.312 11.312l-48 48A8.001 8.001 0 01360 128zm0 0M472 248h-64a8 8 0 010-16h64a8 8 0 010 16zm0 0M72 248H8a8 8 0 010-16h64a8 8 0 010 16zm0 0M72 408l48-48M72 416c-3.234 0-6.152-1.95-7.39-4.938s-.551-6.43 1.734-8.718l48-48a8 8 0 0111.312 11.312l-48 48A8.001 8.001 0 0172 416zm0 0"/></g></svg>