<svg height="464pt" viewBox="0 0 464 464.102" width="464pt" xmlns="http://www.w3.org/2000/svg"><path d="M410.453 208.652c-56.95-.656-102.601-47.328-102-104.277.317-43.867 27.215-83.152 68-99.305a146.814 146.814 0 00-43.71-4.968c-78.657.878-141.716 65.343-140.856 144-.86 78.656 62.199 143.12 140.855 144 59.531.273 112.473-37.813 131.145-94.344a93.035 93.035 0 01-53.434 14.894zm0 0" fill="#fce666"/><path d="M375.887 288.102c-5.852 0-11.692.586-17.426 1.742a71.867 71.867 0 00-37.93-49.957 71.867 71.867 0 00-62.718-1.137c-18.079-49.797-73.102-75.508-122.899-57.43-49.797 18.082-75.508 73.106-57.43 122.903-43.62 1.379-78.078 37.48-77.425 81.12.656 43.637 36.183 78.688 79.828 78.759h296c48.597 0 88-39.399 88-88 0-48.602-39.403-88-88-88zm0 0" fill="#a3d4f7"/></svg>