<svg height="463pt" viewBox="0 -7 463.843 463" width="463pt" xmlns="http://www.w3.org/2000/svg"><path d="M367.836 288.96h8c33.539.005 64.164-19.058 78.969-49.155 14.804-30.094 11.215-65.989-9.254-92.555-20.473-26.57-54.266-39.191-87.14-32.547A71.862 71.862 0 00257.76 63.61c-18.077-49.797-73.1-75.507-122.898-57.43-49.797 18.083-75.508 73.106-57.43 122.903-43.62 1.375-78.078 37.48-77.425 81.117.656 43.64 36.183 78.692 79.828 78.762" fill="#d0dad9"/><g fill="#60a2d7"><path d="M127.836 196.96c8.836 0 16 7.165 16 16v192c0 8.837-7.164 16-16 16-8.84 0-16-7.163-16-16v-192c0-8.835 7.16-16 16-16zm0 0M191.836 176.96c8.836 0 16 7.165 16 16v240c0 8.837-7.164 16-16 16-8.84 0-16-7.163-16-16v-240c0-8.835 7.16-16 16-16zm0 0M255.836 200.96c8.836 0 16 7.165 16 16v192c0 8.837-7.164 16-16 16-8.84 0-16-7.163-16-16v-192c0-8.835 7.16-16 16-16zm0 0M319.836 176.96c8.836 0 16 7.165 16 16v240c0 8.837-7.164 16-16 16-8.84 0-16-7.163-16-16v-240c0-8.835 7.16-16 16-16zm0 0"/></g></svg>