<svg height="472pt" viewBox="0 -8 472.123 472" width="472pt" xmlns="http://www.w3.org/2000/svg"><g fill="#fdd020"><path d="M416.121 160.063c0 57.437-46.558 104-104 104-57.437 0-104-46.563-104-104s46.563-104 104-104c57.442 0 104 46.562 104 104zm0 0M464.121 168.063h-16a8 8 0 010-16h16c4.422 0 8 3.582 8 8s-3.578 8-8 8zm0 0M296.121 32.063a8 8 0 01-8-8v-16a8 8 0 0116 0v16c0 4.417-3.578 8-8 8zm0 0M408.121 72.063a7.994 7.994 0 01-7.387-4.942 7.993 7.993 0 011.735-8.715l16-16a7.994 7.994 0 017.777-2.183 8.012 8.012 0 015.715 5.715 8.004 8.004 0 01-2.184 7.78l-16 16a7.994 7.994 0 01-5.656 2.344zm0 0"/></g><path d="M363.156 360.063a83.149 83.149 0 0073.66-40.97 83.145 83.145 0 000-84.288 83.149 83.149 0 00-73.66-40.97c-5.64.005-11.27.556-16.8 1.65-6.926-32.024-35.376-54.79-68.137-54.536a70.378 70.378 0 00-29.04 6.281c-16.066-41.289-59.042-65.5-102.679-57.843s-75.805 45.047-76.855 89.34a88.537 88.537 0 005.421 30.335A75.512 75.512 0 009.664 247.61a75.512 75.512 0 001.156 75.91 75.518 75.518 0 0066.543 36.544" fill="#a3d4f7"/><path d="M248.121 248.063h-64l-32 96h72l-22.59 112 94.59-144h-64zm0 0" fill="#ffa754"/></svg>