<svg height="463pt" viewBox="0 -43 463.843 463" width="463pt" xmlns="http://www.w3.org/2000/svg"><path d="M367.836 288.96h8c33.539.005 64.164-19.058 78.969-49.155 14.804-30.094 11.215-65.989-9.254-92.555-20.473-26.57-54.266-39.191-87.14-32.547A71.862 71.862 0 00257.76 63.61c-18.077-49.797-73.1-75.507-122.898-57.43-49.797 18.083-75.508 73.106-57.43 122.903-43.62 1.375-78.078 37.48-77.425 81.117.656 43.64 36.183 78.692 79.828 78.762" fill="#a3d4f7"/><g fill="#b7f9fe"><path d="M191.836 320.96h-20.691l18.347-18.343a8 8 0 00-11.312-11.312l-18.344 18.343v-20.687a8 8 0 00-16 0v20.687l-18.344-18.343a8 8 0 00-11.312 11.312l18.343 18.344h-20.687c-4.422 0-8 3.582-8 8s3.578 8 8 8h20.687l-18.343 18.344a8.001 8.001 0 00-2.184 7.78 8.002 8.002 0 0013.496 3.531l18.344-18.343v20.688a8 8 0 0016 0v-20.688l18.344 18.344a8 8 0 0011.312-11.312l-18.347-18.344h20.69a8 8 0 000-16zm0 0M335.836 304.96h-20.691l18.347-18.343a8 8 0 00-11.312-11.312l-18.344 18.343v-20.687a8 8 0 00-16 0v20.687l-18.344-18.343a8 8 0 00-11.312 11.312l18.343 18.344h-20.687c-4.422 0-8 3.582-8 8s3.578 8 8 8h20.687l-18.343 18.344a8.001 8.001 0 00-2.184 7.78 8.002 8.002 0 0013.496 3.531l18.344-18.343v20.688a8 8 0 0016 0v-20.688l18.344 18.344a8 8 0 0011.312-11.312l-18.347-18.344h20.69a8 8 0 000-16zm0 0M245.492 243.305l-18.347-18.344h20.69a8 8 0 000-16h-20.69l18.347-18.344a8 8 0 00-11.312-11.312l-18.344 18.343v-20.687a8 8 0 00-16 0v20.687l-18.344-18.343a8 8 0 00-11.312 11.312l18.343 18.344h-20.687c-4.422 0-8 3.582-8 8s3.578 8 8 8h20.687l-18.343 18.344a8.001 8.001 0 00-2.184 7.78 8.002 8.002 0 0013.496 3.531l18.344-18.343v20.688a8 8 0 0016 0v-20.688l18.344 18.344a8 8 0 0011.312-11.312zm0 0"/></g></svg>