<svg id="Layer_1" data-name="Layer 1" xmlns="http://www.w3.org/2000/svg" xmlns:xlink="http://www.w3.org/1999/xlink" viewBox="0 0 215 215"><defs><style>.cls-1{fill:none;}.cls-2{fill:#00bffe;}.cls-3{clip-path:url(#clip-path);}.cls-4{fill:#fff;}</style><clipPath id="clip-path"><path class="cls-1" d="M173,144.34A89.23,89.23,0,0,1,2.51,106.46c.55-48.65,40.58-88.21,89.23-88.23A89,89,0,0,1,156,45.45h51.73a4.8,4.8,0,0,1,4.19,7.15l-21.2,37.86a25.21,25.21,0,0,1-9.92,9.83h0c.18,2.16.27,4.34.29,6.55a88.52,88.52,0,0,1-3.35,24.81h6.91a6.31,6.31,0,0,1,6.31,6.32h0a6.31,6.31,0,0,1-6.28,6.31Z"/></clipPath></defs><title>alopeyk</title><path class="cls-2" d="M173,144.34A89.23,89.23,0,0,1,2.51,106.46c.55-48.65,40.58-88.21,89.23-88.23A89,89,0,0,1,156,45.45h51.73a4.8,4.8,0,0,1,4.19,7.15l-21.2,37.86a25.21,25.21,0,0,1-9.92,9.83h0c.18,2.16.27,4.34.29,6.55a88.52,88.52,0,0,1-3.35,24.81h6.91a6.31,6.31,0,0,1,6.31,6.32h0a6.31,6.31,0,0,1-6.28,6.31Z"/><g class="cls-3"><path class="cls-4" d="M10.61,54.46a4.58,4.58,0,0,0,0,9.16H184l-5.62,9.89a28.68,28.68,0,0,1-24.81,14.6H68.82a4.58,4.58,0,0,0,0,9.16h73.33l-5.62,9.89a28.66,28.66,0,0,1-24.81,14.6H51.91a4.58,4.58,0,0,0,0,9.16H97.8l-5.62,9.89a28.65,28.65,0,0,1-24.81,14.6H15.19a4.58,4.58,0,0,0,0,9.16H67.37a37.81,37.81,0,0,0,31.4-17h39.46a2.48,2.48,0,0,0,0-5H101.69l6.65-11.71h3.38a37.83,37.83,0,0,0,32.77-19.23l8.19-14.42h.91A37.81,37.81,0,0,0,186.36,78l13.4-23.57Z"/><path class="cls-4" d="M184,135.53H127.74a2.48,2.48,0,0,0,0,4.95H184a2.48,2.48,0,0,0,0-4.95Z"/><path class="cls-4" d="M129.06,172.44H72.86a2.48,2.48,0,1,0,0,4.95h56.2a2.48,2.48,0,1,0,0-4.95Z"/><path class="cls-4" d="M120.8,157.64a2.48,2.48,0,0,0,0-4.95H104.45a2.48,2.48,0,0,0,0,4.95Z"/><path class="cls-4" d="M61,178.62h-8.2a2.48,2.48,0,0,0,0,4.95H61a2.48,2.48,0,1,0,0-4.95Z"/></g></svg>