<svg id="Layer_1" data-name="Layer 1" xmlns="http://www.w3.org/2000/svg" viewBox="0 0 215 215"><defs><style>.cls-1{fill:#231f20;}.cls-2{fill:#ed145b;}</style></defs><title>aparat</title><g id="Layer_2" data-name="Layer 2"><g id="brand"><g id="icon--color-black"><path class="cls-1" d="M93.27,9.54l-19.15-5A32.21,32.21,0,0,0,34.7,27.38v0L29.91,45.46A98.63,98.63,0,0,1,93.27,9.54Z"/><path class="cls-1" d="M9.27,123.18,4.59,140.87a32.2,32.2,0,0,0,22.86,39.39l18.26,4.87A98.68,98.68,0,0,1,9.27,123.18Z"/><path class="cls-1" d="M187.55,34.65l-20.49-5.44a98.64,98.64,0,0,1,37.75,66.06L210.44,74A32.23,32.23,0,0,0,187.55,34.65Z"/><path class="cls-1" d="M121.27,205.16l19.64,5.3A32.21,32.21,0,0,0,180.3,187.6l5.54-20.82A98.69,98.69,0,0,1,121.27,205.16Z"/><path class="cls-2" d="M107.51,17.27a90.2,90.2,0,1,0,90.17,90.23v0A90.2,90.2,0,0,0,107.51,17.27Zm-51.08,45A25.76,25.76,0,1,1,76.86,92.43,25.76,25.76,0,0,1,56.43,62.27ZM93.9,140.2A25.75,25.75,0,1,1,73.51,110,25.76,25.76,0,0,1,93.9,140.2Zm10.93-20.85a12,12,0,1,1,.07,0Zm53.73,33.27a25.75,25.75,0,1,1-20.42-30.17,25.74,25.74,0,0,1,20.42,30.17Zm-17-47.73a25.76,25.76,0,1,1,30.17-20.43,25.75,25.75,0,0,1-30.17,20.43h0Z"/></g></g></g></svg>