<svg id="Layer_1" data-name="Layer 1" xmlns="http://www.w3.org/2000/svg" viewBox="0 0 215 215"><defs><style>.cls-1{fill:#241957;}.cls-2{fill:#7868f6;}.cls-3{fill:#f8d748;}.cls-4{fill:#ff7800;}.cls-5{fill:#fff;}</style></defs><title>balad</title><rect class="cls-1" x="2.25" y="2.25" width="210.5" height="210.5" rx="30.7" ry="30.7"/><path class="cls-2" d="M54.66,2.25V54.66H2.25V160.34H107.48a52.89,52.89,0,0,0,52.86-52.86V2.25Z"/><path class="cls-3" d="M54.66,54.66h52.82a52.82,52.82,0,0,1,52.82,52.82v0a52.82,52.82,0,0,1-52.82,52.82h0a52.82,52.82,0,0,1-52.82-52.82V54.66a0,0,0,0,1,0,0Z"/><circle class="cls-4" cx="107.42" cy="107.5" r="34.79"/><circle class="cls-5" cx="107.42" cy="107.5" r="17.91"/></svg>