<svg id="Layer_1" data-name="Layer 1" xmlns="http://www.w3.org/2000/svg" viewBox="0 0 1080 1080"><defs><style>.cls-1{fill:#de3856;}</style></defs><path class="cls-1" d="M1033.17,539.52c0,48.57.64,97.16-.13,145.73-1.47,91.91-42.15,162.54-120.49,209.64q-123.33,74.16-249.24,144c-79.66,44.3-161.93,45.84-242,1.85q-129-70.85-255-147.16c-78.29-47.37-118.31-119-119-210.66-.76-100.41-1.68-200.89,1.36-301.22,2.51-83.08,42.16-148.84,112.69-192.1Q289.62,111,421.88,39C500.72-4.18,582.37-3.34,661,40q127.51,70.16,252.1,145.58c78.76,47.56,119.44,118.71,120,211.52C1033.4,444.55,1033.17,492,1033.17,539.52Zm-844-.68q0,69.57,0,139.13c0,43.71,19.14,76.06,57,97.8,78.44,45.07,157.05,89.85,235,135.76,40.19,23.67,78.72,23.4,118.72,0q116.35-68.22,233.6-134.93c38-21.65,58.15-53.65,58.4-97.08q.78-139.12,0-278.25c-.18-43.45-19.85-75.71-57.83-97.43Q714.85,235.65,596.16,166.55c-37.34-21.64-74.5-21.36-111.62,0C405.2,212.24,326,258.21,246.62,303.8c-39.09,22.44-58,55.82-57.57,100.83C189.47,449.36,189.14,494.11,189.15,538.84Z"/></svg>