<svg height="463pt" viewBox="0 -47 463.843 463" width="463pt" xmlns="http://www.w3.org/2000/svg"><path d="M367.836 288.96h8c33.539.005 64.164-19.058 78.969-49.155 14.804-30.094 11.215-65.989-9.254-92.555-20.473-26.57-54.266-39.191-87.14-32.547A71.862 71.862 0 00257.76 63.61c-18.077-49.797-73.1-75.507-122.898-57.43-49.797 18.083-75.508 73.106-57.43 122.903-43.62 1.375-78.078 37.48-77.425 81.117.656 43.64 36.183 78.692 79.828 78.762" fill="#a3d4f7"/><g fill="#92aeba"><path d="M319.836 320.96h-80c-4.422 0-8-3.581-8-8 0-4.417 3.578-8 8-8h80a8 8 0 010 16zm0 0M159.836 320.96h-64c-4.422 0-8-3.581-8-8 0-4.417 3.578-8 8-8h64a8 8 0 010 16zm0 0M207.836 320.96h-16c-4.422 0-8-3.581-8-8 0-4.417 3.578-8 8-8h16a8 8 0 010 16zm0 0M223.836 368.96h-96c-4.422 0-8-3.581-8-8 0-4.417 3.578-8 8-8h96a8 8 0 010 16zm0 0M351.836 368.96h-32c-4.422 0-8-3.581-8-8 0-4.417 3.578-8 8-8h32a8 8 0 010 16zm0 0M287.836 368.96h-32c-4.422 0-8-3.581-8-8 0-4.417 3.578-8 8-8h32a8 8 0 010 16zm0 0M319.836 224.96h-80c-4.422 0-8-3.581-8-8 0-4.417 3.578-8 8-8h80a8 8 0 010 16zm0 0M159.836 224.96h-64c-4.422 0-8-3.581-8-8 0-4.417 3.578-8 8-8h64a8 8 0 010 16zm0 0M207.836 224.96h-16c-4.422 0-8-3.581-8-8 0-4.417 3.578-8 8-8h16a8 8 0 010 16zm0 0M223.836 272.96h-96c-4.422 0-8-3.581-8-8 0-4.417 3.578-8 8-8h96a8 8 0 010 16zm0 0M351.836 272.96h-32c-4.422 0-8-3.581-8-8 0-4.417 3.578-8 8-8h32a8 8 0 010 16zm0 0M287.836 272.96h-32c-4.422 0-8-3.581-8-8 0-4.417 3.578-8 8-8h32a8 8 0 010 16zm0 0"/></g></svg>