<svg id="Layer_1" data-name="Layer 1" xmlns="http://www.w3.org/2000/svg" xmlns:xlink="http://www.w3.org/1999/xlink" viewBox="0 0 215 215"><defs><style>.cls-1{fill:none;}.cls-2{fill:#1094e9;}.cls-3{clip-path:url(#clip-path);}.cls-4{fill:#1089d4;}</style><clipPath id="clip-path"><circle class="cls-1" cx="107.76" cy="107.4" r="95.3"/></clipPath></defs><title>digiato</title><circle class="cls-2" cx="107.76" cy="107.4" r="95.3"/><g class="cls-3"><path class="cls-4" d="M193.25,65.24s-29.81,13.45-41.73,51.24,4.85,72.91,4.85,72.91L175.19,220l43.2-43.21,8.8-79.25L208.48,54Z"/><path class="cls-4" d="M12.45,103.77s110.06-16.43,112.73,97.34l1.3,20.21s-51.19,6.06-54.21,5.23S15.86,189.4,15.86,189.4-1.76,152-1.76,150.05-9.19,107.4-9.19,107.4Z"/><path class="cls-4" d="M22.37,65s77,64.57,144.54-32.34l1.16-35.62S127.3-17.26,115.75-16.71,30.44,2.16,30.44,2.16L-4.78,42.23Z"/></g><path class="cls-2" d="M175,189.4S236.46,144,203.06,63.28c0,0-34.48,13.3-45.49,56S175,189.4,175,189.4Z"/><path class="cls-2" d="M122.9,212S18.88,228.2,2,115.81c0,0,43.85-18.14,83.48,10.53C130.61,159.41,122.9,212,122.9,212Z"/><path class="cls-2" d="M156.37,14.15S73.74-31.39,15.76,55c0,0,22.57,33.57,74.49,26.24S153.7,25.74,156.37,14.15Z"/></svg>