<svg id="Layer_1" data-name="Layer 1" xmlns="http://www.w3.org/2000/svg" viewBox="0 0 215 215"><defs><style>.cls-1{fill:#a62a2a;}.cls-2{fill:#474646;}</style></defs><title>divar</title><path class="cls-1" d="M76.47,50.5c.89-6.16,10.67-6.84,12.2-.66C87.53,76,83.85,101.89,82.39,128c.06,4.24-4.27,6.87-8.19,6a5.74,5.74,0,0,1-4-6.81A623.71,623.71,0,0,0,76.47,50.5Z"/><path class="cls-1" d="M191.6,85.33c3.19-2.72,8.39-.89,10.11,2.68,2.52,5.06,5.54,10.09,6.29,15.8.82,7.12.85,15.24-4.44,20.79-9.91,10.49-23.42,16.76-36.94,21.2-3-.8-6.23-3.21-5.67-6.7-.59-2.95,2-4.92,4.38-5.88,10.87-2.82,21.55-7.57,29.7-15.47a8.18,8.18,0,0,0,2.53-7.7c-1.41-6.08-4.63-11.52-7.68-16.89C188.62,90.62,189.09,87,191.6,85.33Z"/><path class="cls-1" d="M54.49,84.87c3.6-.61,8.11.69,9.91,4.1,1.76,13.85-5.07,26.78-12.07,38.2C46,138.08,36.42,146.56,27.19,155c-3.53,3-7,6.16-11,8.48-2.26,1.34-4.79-.2-6.9-1.13-4-2.07-4.38-8.33-.72-10.95a228.77,228.77,0,0,0,22.23-20.68c5.12-5.9,9.09-12.66,12.91-19.44s4.71-14.42,6.58-21.77A6.89,6.89,0,0,1,54.49,84.87Z"/><path class="cls-1" d="M155.8,88c2.55-3.54,8.24-1.18,9.38,2.45.1,8.36-2.53,16.68-6.33,24.06a37.1,37.1,0,0,1-20.69,14.8c-6.49,1.41-13.19.76-19.77,1-6,10.34-14.52,18.79-23.28,26.78-5.22,4.45-10.18,9.44-16.49,12.35-3-1.37-5.45-4.71-4.52-8.13,1-4.33,5.53-6.08,8.38-9,7.86-7.23,16.22-14.31,21.88-23.48-4.33-1.87-8.3-5.86-8.08-10.9-.37-8.77,5.44-16,10.77-22.41,3.69-4.78,9.75-8.67,16-7.25,4.54,1.31,7,6.27,7.21,10.72a46,46,0,0,1-4.62,18.68c8.84,2,19.92-1.6,23.79-10.4C152.68,101.21,151.31,93.47,155.8,88Zm-45.64,24.22c-.89,1.8-1.66,4.27.39,5.59,3.48-3.66,5.24-8.88,6-13.8A51.48,51.48,0,0,0,110.16,112.22Z"/><path class="cls-2" d="M88.67,49.84c.88,2.13.23,4.55.35,6.8-1.9,24.31-4.67,48.56-6.18,72.9A6.27,6.27,0,0,1,74.2,134c3.92.83,8.25-1.8,8.19-6C83.85,101.89,87.53,76,88.67,49.84Z"/><path class="cls-2" d="M165.18,90.45a8.64,8.64,0,0,1,.48,5.19c-1.5,7.41-3.2,15.11-7.64,21.39-5.4,6.48-12.82,11.53-21.15,13.24-6,.74-12.16.48-18.17.84-3,4.67-6,9.44-9.88,13.53A196.58,196.58,0,0,1,84.35,167c-1.76,1.09-3.48,2.85-5.73,2.47,6.31-2.91,11.27-7.9,16.49-12.35,8.76-8,17.3-16.44,23.28-26.78,6.58-.22,13.28.43,19.77-1a37.1,37.1,0,0,0,20.69-14.8C162.65,107.13,165.28,98.81,165.18,90.45Z"/><path class="cls-2" d="M208,103.81c2.09,7.49,1,16.48-4.73,22.17-8.94,9.12-20.73,14.67-32.5,19.16-1.34.39-2.73,1.18-4.15.66,13.52-4.44,27-10.71,36.94-21.2C208.85,119.05,208.82,110.93,208,103.81Z"/><path class="cls-2" d="M151.37,138.78c2.55-.72,6.64.3,6.31,3.59-.74,2.54-1,6.23-4.18,6.84-9.62,2.88-19.71,3.57-29.59,5.11-3,.25-7.58-.92-7.7-4.62-.74-5.44,5.31-8.33,9.9-8.42C134.54,140.48,143,139.72,151.37,138.78Z"/></svg>