<svg id="Layer_1" data-name="Layer 1" xmlns="http://www.w3.org/2000/svg" xmlns:xlink="http://www.w3.org/1999/xlink" viewBox="0 0 215 215"><defs><style>.cls-1{fill:url(#radial-gradient);}.cls-2{fill:#fff;}</style><radialGradient id="radial-gradient" cx="36.89" cy="197.16" r="39.22" gradientTransform="matrix(5.15, -6.12, -4.04, -3.4, 654.27, 1149.43)" gradientUnits="userSpaceOnUse"><stop offset="0.07" stop-color="#eacc7b"/><stop offset="0.18" stop-color="#ecaa59"/><stop offset="0.31" stop-color="#ef802e"/><stop offset="0.36" stop-color="#ef6d3a"/><stop offset="0.46" stop-color="#f04b50"/><stop offset="0.52" stop-color="#f03e58"/><stop offset="0.69" stop-color="#db359e"/><stop offset="0.72" stop-color="#ce37a4"/><stop offset="0.79" stop-color="#ac3cb4"/><stop offset="0.88" stop-color="#7544cf"/><stop offset="0.98" stop-color="#2b4ff2"/></radialGradient></defs><title>instagram</title><path class="cls-1" d="M166.07,211.13H48.93a45.19,45.19,0,0,1-45-45.06V48.93a45.18,45.18,0,0,1,45.05-45H166.07a45.19,45.19,0,0,1,45.06,45.05V166.07A45.2,45.2,0,0,1,166.07,211.13Z"/><path class="cls-2" d="M107.5,44.42c20.72,0,23,0,31.09.45A50.21,50.21,0,0,1,153,47.58a25.78,25.78,0,0,1,14.87,14.87,49.85,49.85,0,0,1,2.71,14.41V107.5c0,20.72,0,23-.45,31.09A49.85,49.85,0,0,1,167.42,153a25.78,25.78,0,0,1-14.87,14.87,49.85,49.85,0,0,1-14.41,2.71H107.5c-20.72,0-23,0-31.09-.45A49.85,49.85,0,0,1,62,167.42a25.78,25.78,0,0,1-14.87-14.87,49.85,49.85,0,0,1-2.71-14.41V107.5c0-20.72,0-23,.45-31.09A50.21,50.21,0,0,1,47.58,62,25.78,25.78,0,0,1,62.45,47.13a49.85,49.85,0,0,1,14.41-2.71H107.5m0-13.51c-20.73,0-23.43,0-31.54.45A60.82,60.82,0,0,0,57.49,35,32.52,32.52,0,0,0,44,44a50.88,50.88,0,0,0-9,13.52A60.82,60.82,0,0,0,31.36,76c-.45,8.11-.45,10.81-.45,31.54s0,23.43.45,31.54A60.82,60.82,0,0,0,35,157.51,32.52,32.52,0,0,0,44,171a44.61,44.61,0,0,0,13.52,9A60.82,60.82,0,0,0,76,183.64c8.11.45,10.82.45,31.54.45s23.43,0,31.54-.45a60.82,60.82,0,0,0,18.47-3.6A32.52,32.52,0,0,0,171,171a44.61,44.61,0,0,0,9-13.52,60.82,60.82,0,0,0,3.6-18.47c.45-8.11.45-10.82.45-31.54s0-23.43-.45-31.54A60.82,60.82,0,0,0,180,57.49,32.52,32.52,0,0,0,171,44a50.88,50.88,0,0,0-13.52-9A60.82,60.82,0,0,0,139,31.36c-8.11-.45-10.82-.45-31.54-.45Z"/><path class="cls-2" d="M107.5,67a40.55,40.55,0,1,0,40.55,40.55A40.38,40.38,0,0,0,107.5,67Zm0,67.58a27,27,0,1,1,27-27A27.1,27.1,0,0,1,107.5,134.53Z"/><circle class="cls-2" cx="148.05" cy="66.95" r="9.01"/></svg>