<svg height="464pt" viewBox="0 -16 464.123 464" width="464pt" xmlns="http://www.w3.org/2000/svg"><path d="M426.41 150.758c-40.668-.934-72.894-34.64-72-75.313.035-31.41 18.977-59.715 48-71.726A101.56 101.56 0 00371.555.133c-54.918 0-99.434 46.562-99.434 104 0 57.441 44.516 104 99.434 104 42.414-.09 79.875-27.664 92.566-68.133a64.58 64.58 0 01-37.71 10.758zm0 0" fill="#fce666"/><path d="M363.156 336.133a83.137 83.137 0 0073.66-40.965 83.145 83.145 0 000-84.29 83.149 83.149 0 00-73.66-40.968c-5.64.004-11.27.555-16.8 1.649-6.926-32.024-35.376-54.793-68.137-54.536a70.436 70.436 0 00-29.04 6.278C233.114 82.016 190.138 57.805 146.5 65.46c-43.637 7.652-75.805 45.047-76.855 89.336a88.52 88.52 0 005.421 30.336 75.515 75.515 0 00-64.246 114.46 75.506 75.506 0 0066.543 36.54" fill="#a3d4f7"/><path d="M201.531 432.133l94.59-144h-64l16-64h-64l-32 96h72z" fill="#ffa754"/></svg>