<svg id="Layer_1" data-name="Layer 1" xmlns="http://www.w3.org/2000/svg" viewBox="0 0 1000 1000"><defs><style>.cls-1{fill:#0aaddb;}.cls-2{fill:#fff;}</style></defs><title>Peyvast</title><path class="cls-1" d="M1.19,499.12C-.48,228.89,222.81.63,502.79,2.18c275.29,1.53,498.14,226.87,496,502-2.07,270.68-224.49,495.9-503.43,493.64C220.09,995.59-1.25,769.57,1.19,499.12Zm834.88-4.55c-2.7-22.21-4.11-44.66-8.34-66.57C815.78,366.14,787,312.71,744,266.79c-5.29-5.64-8.83-6-14.16-.16-8.59,9.44-17.92,18.21-26.92,27.28-10,10.06-10,10.06-.76,20.44,56.87,64.11,80,138.92,66,223.24C752.55,630.86,700,697.76,614.86,738.81c-32.77,15.8-67.81,22.78-103.92,24.54-7.32.36-9.82,3-9.67,10.09.29,14.33.16,28.67-.11,43-.12,6.08,1.62,9.6,8.39,9.13,13-.91,26.2-.85,39.11-2.65C717.33,799.45,836.68,652.81,836.07,494.57ZM501.34,719.83h-.19c0,7.48.24,15-.07,22.43-.27,6.57,2.72,9.24,9,8.59,15.76-1.64,31.83-1.94,47.22-5.31,152.42-33.46,239.57-189.23,188-336.42C722,342.79,677.82,294.29,614.61,263.34c-12.24-6-12.72-5.72-17.69,6.37s-9.6,24.36-15.08,36.24c-3.25,7.07-2.54,10.42,5.21,14,129.5,60.27,149,240.61,35.66,327.76C589.84,673,552.53,686.4,511.29,688.65c-7.82.42-10.49,3.15-10,10.62C501.66,706.1,501.34,713,501.34,719.83Zm-.59-74.37.41,0v9.34c0,3.12-.05,6.23,0,9.35.05,11.67.33,12.14,12.21,11.71,91.78-3.34,172.73-80.62,171.83-182.93-.46-52-20.28-96.43-58.64-132-31.83-29.49-69.72-45-113-48-7.65-.51-10.73,2.14-10.4,10,.45,10.89.11,21.81.1,32.72,0,18.46,0,18.46,17.83,21.19,56.47,8.63,99.55,56.59,101.42,112.92,1.94,58.37-36.7,108.3-93.65,121.12-8.85,2-21,1.71-25.45,7.35C498.68,624.36,501.32,636.17,500.75,645.46Zm-72.5-.49c0,7.48.23,15-.08,22.43-.26,6.57,2.72,8.81,9,8.72,14.33-.21,28.67-.24,43,0,6.62.12,9.69-2.06,9.51-9.14q-.51-21,0-42.06c.18-7-2.77-9.28-9.45-9.13-13.08.29-26.17.05-39.26.08-12.67,0-12.68.06-12.72,13.18Q428.2,637,428.25,645Zm31.5,45.81c-7.79,0-15.59.18-23.37-.06-6.06-.18-8.28,2.5-8.2,8.41.21,14.64.17,29.29,0,43.94,0,5.56,2.41,7.89,7.87,7.86q22.91-.13,45.81,0c5.58,0,7.74-2.59,7.68-8-.14-14.95-.12-29.91,0-44.87,0-5.16-2.31-7.34-7.36-7.26C474.71,690.88,467.23,690.8,459.75,690.78Zm-.59,134.84c7.17,0,14.35-.19,21.5.06,6.24.22,9.09-2.09,9-8.68-.28-14.33-.22-28.67,0-43,.08-5.79-1.91-8.64-8.06-8.57q-22.44.27-44.87,0c-5.81-.07-8.57,2-8.49,8.17q.33,22,0,43.93c-.09,6.18,2.78,8.28,8.54,8.13C444.2,825.47,451.69,825.61,459.16,825.62Z"/><path class="cls-2" d="M836.07,494.57c.61,158.24-118.74,304.88-287.41,328.36-12.91,1.8-26.07,1.74-39.11,2.65-6.77.47-8.51-3.05-8.39-9.13.27-14.34.4-28.68.11-43-.15-7.1,2.35-9.73,9.67-10.09,36.11-1.76,71.15-8.74,103.92-24.54,85.15-41,137.69-107.95,153.23-201.22,14-84.32-9.11-159.13-66-223.24-9.21-10.38-9.23-10.38.76-20.44,9-9.07,18.33-17.84,26.92-27.28,5.33-5.85,8.87-5.48,14.16.16C787,312.71,815.78,366.14,827.73,428,832,449.91,833.37,472.36,836.07,494.57Z"/><path class="cls-2" d="M501.34,719.83c0-6.86.32-13.73-.09-20.56-.45-7.47,2.22-10.2,10-10.62,41.24-2.25,78.55-15.65,111.42-40.92C736.05,560.58,716.55,380.24,587.05,320c-7.75-3.6-8.46-7-5.21-14,5.48-11.88,10.09-24.14,15.08-36.24s5.45-12.36,17.69-6.37c63.21,31,107.34,79.45,130.61,145.78,51.61,147.19-35.54,303-188,336.42-15.39,3.37-31.46,3.67-47.22,5.31-6.24.65-9.23-2-9-8.59.31-7.47.07-15,.07-22.43Z"/><path class="cls-2" d="M500.75,645.46c.57-9.29-2.07-21.1,2.66-27.15,4.41-5.64,16.6-5.36,25.45-7.35,56.95-12.82,95.59-62.75,93.65-121.12-1.87-56.33-45-104.29-101.42-112.92-17.83-2.73-17.83-2.73-17.83-21.19,0-10.91.35-21.83-.1-32.72-.33-7.84,2.75-10.49,10.4-10,43.24,2.92,81.13,18.47,113,48,38.36,35.54,58.18,79.94,58.64,132,.9,102.31-80,179.59-171.83,182.93-11.88.43-12.16,0-12.21-11.71,0-3.12,0-6.23,0-9.35v-9.34Z"/><path class="cls-2" d="M428.23,645q0-8,0-15.9c0-13.12,0-13.15,12.72-13.18,13.09,0,26.18.21,39.26-.08,6.68-.15,9.63,2.09,9.45,9.13q-.52,21,0,42.06c.18,7.08-2.89,9.26-9.51,9.14-14.33-.26-28.67-.23-43,0-6.24.09-9.22-2.15-9-8.72C428.48,659.94,428.25,652.45,428.23,645Z"/><path class="cls-2" d="M459.75,690.79c7.48,0,15,.09,22.44,0,5.05-.08,7.4,2.1,7.36,7.26-.1,15-.12,29.92,0,44.87.06,5.44-2.1,8.06-7.68,8q-22.9-.15-45.81,0c-5.46,0-7.92-2.3-7.87-7.86.14-14.65.18-29.3,0-43.94-.08-5.91,2.14-8.59,8.2-8.41C444.16,691,452,690.78,459.75,690.79Z"/><path class="cls-2" d="M459.16,825.62c-7.47,0-15-.15-22.43,0-5.76.15-8.63-1.95-8.54-8.13q.31-22,0-43.93c-.08-6.14,2.68-8.24,8.49-8.17q22.43.26,44.87,0c6.15-.07,8.14,2.78,8.06,8.57-.2,14.33-.26,28.67,0,43,.13,6.59-2.72,8.9-9,8.68C473.51,825.43,466.33,825.62,459.16,825.62Z"/></svg>