<svg id="Layer_1" data-name="Layer 1" xmlns="http://www.w3.org/2000/svg" viewBox="0 0 215 215"><defs><style>.cls-1{fill:#29b6f6;}.cls-2{fill:#fff;}.cls-3{fill:#b0bec5;}.cls-4{fill:#cfd8dc;}</style></defs><title>Telegram</title><path class="cls-1" d="M107.5.92A106.58,106.58,0,1,0,214.08,107.5,106.58,106.58,0,0,0,107.5.92Z"/><path class="cls-2" d="M160.53,59.54l-20,101.92s-.86,4.66-6.63,4.66a7.16,7.16,0,0,1-4.66-1.46L86,128.78,64.88,118.12l-27.15-7.23s-4.84-1.39-4.84-5.39c0-3.33,5-4.92,5-4.92l113.6-45.12a21.26,21.26,0,0,1,6-1.25c1.56,0,3.33.66,3.33,2.66A15.93,15.93,0,0,1,160.53,59.54Z"/><path class="cls-3" d="M102.17,142.17l-18.26,18a3.49,3.49,0,0,1-1.85.64,2.68,2.68,0,0,1-1.17-.23L86,128.77Z"/><path class="cls-4" d="M138.93,76.57a2.67,2.67,0,0,0-3.74-.5L64.87,118.16S76.09,149.56,77.8,155s3.09,5.57,3.09,5.57L86,128.77l52.4-48.47A2.66,2.66,0,0,0,138.93,76.57Z"/></svg>