<svg id="Layer_1" data-name="Layer 1" xmlns="http://www.w3.org/2000/svg" viewBox="0 0 215 215"><defs><style>.cls-1{fill:#eb1f33;}.cls-2{fill:#bf1122;}.cls-3{fill:#fff;}.cls-4{fill:#419200;}.cls-5{fill:#70d21e;}</style></defs><title>torob</title><path class="cls-1" d="M108.29,10.3A101.59,101.59,0,0,0,14.71,152.61q1.65,3.76,3.61,7.38a100.15,100.15,0,0,0,32.75,35.55c16.57,10.94,36.51,17.38,56.43,17.38a101.43,101.43,0,0,0,101.31-102.1C208.39,55.71,163.4,10.72,108.29,10.3Zm23.09,168.2a71.36,71.36,0,0,1-42.2,1.75,34.41,34.41,0,0,0-36.84,13.5l-.9,1.27a34.16,34.16,0,0,0,4.07-7.71,34.89,34.89,0,0,0-4.91-33.15A71.05,71.05,0,0,1,110.3,40.64a70,70,0,0,1,24,5.19,71,71,0,0,1-2.87,132.67Z"/><path class="cls-2" d="M55.51,187.31a30,30,0,0,1-4.44,8.23c-14.48-7-31.45-30.13-36.36-42.93a102,102,0,0,1-8.52-41,100.76,100.76,0,0,1,11-45.95,81.72,81.72,0,0,1,117-19.82,70,70,0,0,0-24-5.19A71.05,71.05,0,0,0,50.6,154.16,34.89,34.89,0,0,1,55.51,187.31Z"/><path class="cls-3" d="M145.09,59.24c-.64-.5-15.71-12.46-11.62-30.59,4-17.58,21.57-25.2,22.31-25.51l2.5-1.06,2.13,1.67c.61.48,14.89,11.89,11.36,31.67-3.58,20.06-22,24.5-22.83,24.67l-2.13.49Z"/><path class="cls-4" d="M147.92,55.6S134.48,45.15,138,29.67,157.58,7.38,157.58,7.38a29.23,29.23,0,0,1,9.66,27.24C164.15,51.9,147.92,55.6,147.92,55.6Z"/><path class="cls-3" d="M165.07,66.39A32.71,32.71,0,0,1,149,62.07l-1.85-1.16-.27-2.17c-.1-.8-2.29-19.91,13.41-29.84a33.88,33.88,0,0,1,18.37-5,44.79,44.79,0,0,1,15.46,2.78l2.51,1,.33,2.68c.09.77,2.12,18.94-14.37,30.43A30.09,30.09,0,0,1,165.07,66.39Z"/><path class="cls-5" d="M151.43,58.17s-2.12-16.9,11.3-25.37,29.62-1.89,29.62-1.89A29.2,29.2,0,0,1,179.93,57C165.52,67,151.43,58.17,151.43,58.17Z"/></svg>