<svg id="Layer_1" data-name="Layer 1" xmlns="http://www.w3.org/2000/svg" viewBox="0 0 215 215"><defs><style>.cls-1{fill:#016cba;}.cls-2{fill:#01ab55;}.cls-3{fill:#2d3e50;}.cls-4{fill:#7d7e80;}.cls-5{fill:#ef0d19;}.cls-6{fill:#545454;}.cls-7{fill:#fef302;}</style></defs><title>varzesh se</title><g id="_016cbaff" data-name="#016cbaff"><path class="cls-1" d="M82.4,30.46a101.73,101.73,0,0,1,60.48-22.7c.43,8.33.93,16.66,1,25A78.69,78.69,0,0,0,111.56,41c-8.85,2-17.89,3.57-26.12,7.54-7.52,3.26-14.79,7.31-20.85,12.89C55.47,69.76,49.3,80.92,46,92.74a66.38,66.38,0,0,1,3.23-14.11A103.89,103.89,0,0,1,82.4,30.46Z"/></g><g id="_01ab55ff" data-name="#01ab55ff"><path class="cls-2" d="M35.41,25.51c7.17,4.42,15,7.67,22.33,11.79-7,12.39-9.63,27.19-8.47,41.33A66.38,66.38,0,0,0,46,92.74c-3.18,14.64-1.74,30.47,5.59,43.69C55.35,144,61.34,150,67.16,156c-6.71-4.53-12.45-10.25-17.95-16.14A103.12,103.12,0,0,1,24,75,100.51,100.51,0,0,1,35.41,25.51Z"/></g><g id="_2d3e50ff" data-name="#2d3e50ff"><path class="cls-3" d="M111.56,41c23.93-3,49,1.8,69.42,14.91,13.4,8.19,24.31,19.92,32.85,33-7.13,4.33-14.22,8.76-21.28,13.19-7.45-11.37-17.29-21.37-29.42-27.68A89.25,89.25,0,0,0,147.61,60a64.53,64.53,0,0,0-36.83-14.67c-8.59-.74-17.06,1.19-25.34,3.23C93.67,44.6,102.71,43,111.56,41Z"/></g><g id="_7d7e80ff" data-name="#7d7e80ff"><path class="cls-4" d="M85.44,48.57c8.28-2,16.75-4,25.34-3.23A64.53,64.53,0,0,1,147.61,60c2.33,2.82,5,5.34,7.46,8,12.46,14.88,16.8,35.62,13.08,54.49a128.6,128.6,0,0,1-5.46,20.09,105.9,105.9,0,0,1-31.79,42.5A101.42,101.42,0,0,1,67,207.23c0-8.29-.21-16.6.18-24.88,12.19-.23,24.54-2.8,35.34-8.6,2.35-1.25,4.61-2.68,6.86-4.14-15.18.86-30.19-4.47-42.17-13.62-5.82-6-11.81-12-15.53-19.56C44.3,123.21,42.86,107.38,46,92.74c3.26-11.82,9.43-23,18.55-31.28,6.06-5.58,13.33-9.63,20.85-12.89M98.78,71c-15.57,3.52-28.53,17.58-29,33.83-2.21,19.43,14.07,38.18,33.36,39.67,14.88,1.68,30.23-6.71,36.93-20.08A37.46,37.46,0,0,0,142,94.85C136.11,77.66,116.48,66.82,98.78,71Z"/></g><g id="_ef0d19ff" data-name="#ef0d19ff"><path class="cls-5" d="M147.61,60a89.25,89.25,0,0,1,15.52,14.44A101.87,101.87,0,0,1,187.82,133c1.79,18.58-2.22,37.45-10.3,54.21-7.21-3.66-14.44-7.3-21.81-10.61a11.31,11.31,0,0,1,1-4.41,74.65,74.65,0,0,0,6.35-28.77l-.41-.82a128.6,128.6,0,0,0,5.46-20.09c3.72-18.87-.62-39.61-13.08-54.49C152.62,65.35,149.94,62.83,147.61,60Z"/></g><path class="cls-6" d="M91.06,91,96,88.8c2.22,5.83,3.1,12,4.26,18.12.32,2.74,3.09,3.52,5.44,3.72,4.16-6-.81-13.23-1-19.76,1.75-.58,3.51-1.18,5.27-1.78,1.46,5.44,2.12,11.07,3.64,16.48.6,2.11,2.14,4.28,4.47,4.62,2.58-.16,3.59-3,3.29-5.19a32,32,0,0,0-4.86-12.94,28.17,28.17,0,0,1,5.38-2.76c2.74,5.28,5.36,10.88,5.65,16.92.44,4.78-3.26,9.68-8.14,10.13-3.3.56-6.06-1.76-8.58-3.5-2.24,3.67-6.49,4.15-10.21,2.64a88.54,88.54,0,0,1,.55,13.33l-5.55-.06A135.72,135.72,0,0,0,91.06,91Z"/><g id="_fef302ff" data-name="#fef302ff"><path class="cls-7" d="M1.17,128.28c6.73-5.09,14.16-9.18,21.07-14a79.61,79.61,0,0,0,27,25.6c5.5,5.89,11.24,11.61,17.95,16.14,12,9.15,27,14.48,42.17,13.62-2.25,1.46-4.51,2.89-6.86,4.14-34.56,5.08-71.54-8.41-93.65-35.62C6.05,135,3.81,131.5,1.17,128.28Z"/></g></svg>