<svg id="Layer_1" data-name="Layer 1" xmlns="http://www.w3.org/2000/svg" xmlns:xlink="http://www.w3.org/1999/xlink" viewBox="0 0 215 215"><defs><style>.cls-1{fill:#fff;}.cls-2{fill:url(#linear-gradient);}</style><linearGradient id="linear-gradient" x1="13.68" y1="212.65" x2="13.68" y2="190.96" gradientTransform="matrix(8, 0, 0, -8, 0, 1720)" gradientUnits="userSpaceOnUse"><stop offset="0" stop-color="#00d772"/><stop offset="1" stop-color="#00b26e"/><stop offset="1" stop-color="#00b26e"/></linearGradient></defs><title>whatsapp</title><path class="cls-1" d="M101.14,3c-49.3,3.93-89,44.2-92.38,93.54a100.62,100.62,0,0,0,9.85,51L5,199.18A10.5,10.5,0,0,0,17.84,212l54.89-14.45a100.93,100.93,0,0,0,48.43,6.24c47.64-5.44,85.35-44.74,88.89-92.55A100.94,100.94,0,0,0,101.14,3Z"/><path class="cls-2" d="M35,148.78a8.06,8.06,0,0,0-.54-5.57l-1.31-2.69a85.13,85.13,0,0,1-8.26-42.91C27.69,56.14,61,22.38,102.43,19.07c2.33-.19,4.68-.28,7-.28A85,85,0,0,1,171.55,45.9,84.11,84.11,0,0,1,194,110.05c-2.94,39.78-35,73.18-74.61,77.7a86.91,86.91,0,0,1-9.91.57h0a84.4,84.4,0,0,1-30.82-5.8l-2.45-1a8.12,8.12,0,0,0-5-.29L29.79,192.16a4,4,0,0,1-4.93-4.93Z"/><path class="cls-1" d="M83.64,59.62c-1.93-4.28-4-4.37-5.81-4.44-1.51-.06-3.23-.06-5-.06A9.52,9.52,0,0,0,66,58.34c-2.37,2.57-9,8.78-9,21.43s9.25,24.86,10.54,26.58,17.86,28.48,44.11,38.79c21.81,8.56,26.25,6.86,31,6.43s15.27-6.21,17.42-12.22,2.16-11.14,1.51-12.21-2.37-1.71-4.94-3c-1.2-.6-7.79-3.83-15-7.32a8.08,8.08,0,0,0-9.71,2.09c-1,1.17-2.85,3.43-5,5.93a8.06,8.06,0,0,1-9.74,2.07c-5.13-2.5-12.68-6.65-18.58-11.88-4.22-3.75-9.09-10.36-12.27-15A8.09,8.09,0,0,1,87,90c1.12-1.23,2.26-2.47,3.08-3.43a8.06,8.06,0,0,0,1.35-8.29C89.1,72.56,85.2,63.08,83.64,59.62Z"/></svg>